<?xml version="1.0" encoding="UTF-8"?>
<svg id="katman_2" data-name="katman 2" xmlns="http://www.w3.org/2000/svg" viewBox="0 0 131.58 131.58">
  <defs>
    <style>
      .cls-1 {
        fill: #fff;
      }

      .cls-2 {
        fill: #e52521;
      }

      .cls-3 {
        fill: #010101;
      }
    </style>
  </defs>
  <g id="katman_1" data-name="katman 1">
    <rect class="cls-1" width="131.58" height="131.58" rx="14.94" ry="14.94"/>
    <g>
      <g>
        <g>
          <path class="cls-3" d="M8.57,82.52h10.77v1.23h-4.71v13.62h-1.36v-13.62h-4.71v-1.23Z"/>
          <path class="cls-3" d="M21.35,82.52h10.24v1.23h-8.88v5.29h8.41v1.18h-8.41v5.91h9.16v1.23h-10.52v-14.85Z"/>
        </g>
        <path class="cls-3" d="M34.41,82.52h1.38v7.22l-1.38,1.79v-9.01ZM34.41,97.37v-3.95l9.44-10.9h1.61l-5.44,6.19,5.76,8.66h-1.56l-5.06-7.55-3.37,3.8v3.75h-1.38Z"/>
        <path class="cls-3" d="M47.9,82.52h1.38l9.26,12.51v-12.51h1.39v14.85h-1.39l-10.65-14.6v-.25ZM49.29,86.92v10.45h-1.38v-12.51l1.38,2.06Z"/>
        <g>
          <path class="cls-3" d="M62.7,89.94c0-4.41,3.07-7.7,7.55-7.7,4.46,0,7.53,3.32,7.53,7.7s-3.07,7.73-7.53,7.73-7.55-3.32-7.55-7.73ZM64.08,89.94c0,3.62,2.44,6.49,6.17,6.49,3.7,0,6.14-2.87,6.14-6.49s-2.42-6.49-6.14-6.49-6.17,2.89-6.17,6.49Z"/>
          <path class="cls-3" d="M80.53,82.52h1.38v13.62h8.36v1.23h-9.74v-14.85Z"/>
          <path class="cls-3" d="M90.36,89.94c0-4.41,3.07-7.7,7.55-7.7,4.46,0,7.53,3.32,7.53,7.7s-3.07,7.73-7.53,7.73-7.55-3.32-7.55-7.73ZM91.75,89.94c0,3.62,2.44,6.49,6.17,6.49,3.7,0,6.14-2.87,6.14-6.49s-2.42-6.49-6.14-6.49-6.17,2.89-6.17,6.49Z"/>
          <path class="cls-3" d="M111.05,92.58v-10.07h1.36v10.24c0,3.07-1.94,4.91-5.51,4.91-.5,0-1.06-.05-1.48-.13v-1.26c.38.1.86.15,1.31.15,2.52,0,4.33-1.13,4.33-3.85h0Z"/>
          <path class="cls-3" d="M116.05,78.59c.53,0,.93.4.93.91s-.4.88-.93.88-.96-.4-.96-.88c0-.5.43-.91.96-.91ZM115.37,82.52h1.36v14.85h-1.36v-14.85Z"/>
        </g>
        <path class="cls-2" d="M123.01,95.85c0,1-.81,1.81-1.81,1.81s-1.81-.81-1.81-1.81.81-1.81,1.81-1.81,1.81.81,1.81,1.81"/>
      </g>
      <g>
        <path class="cls-3" d="M8.57,33.92h8.97v17.02h16.6v-17.02h8.97v41.34h-8.97v-16.89h-16.6v16.89h-8.97v-41.34Z"/>
        <polygon class="cls-3" points="65.41 45.61 59.66 61.17 67.5 61.17 69.89 68.04 57.28 68.04 54.69 75.25 44.81 75.25 60.85 33.91 69.96 33.91 86.01 75.25 76.13 75.25 65.41 45.61"/>
        <path class="cls-3" d="M87.14,33.91h20.81c7.56,0,13.66,6.24,13.66,13.73,0,5.54-3.37,10.23-8.06,12.19l9.46,15.41h-9.88l-8.27-13.87h-8.76v13.87h-8.97v-20.81h19.27c3.44,0,6.24-2.8,6.24-6.31s-2.8-6.31-6.24-6.31h-19.27v-7.92Z"/>
      </g>
    </g>
  </g>
</svg>