<?xml version="1.0" encoding="UTF-8"?>
<svg id="katman_2" data-name="katman 2" xmlns="http://www.w3.org/2000/svg" viewBox="0 0 165.64 20.28">
  <defs>
    <style>
      .cls-1 {
        fill: #e52521;
      }

      .cls-2 {
        fill: #010101;
      }
    </style>
  </defs>
  <g id="katman_1" data-name="katman 1">
    <g>
      <path class="cls-2" d="M0,4.14h3.42v6.5h6.34v-6.5h3.43v15.79h-3.43v-6.45H3.42v6.45H0V4.14Z"/>
      <polygon class="cls-2" points="21.71 8.61 19.51 14.54 22.51 14.54 23.42 17.17 18.6 17.17 17.61 19.92 13.84 19.92 19.97 4.14 23.44 4.14 29.57 19.92 25.8 19.92 21.71 8.61"/>
      <path class="cls-2" d="M30,4.14h7.95c2.89,0,5.22,2.38,5.22,5.24,0,2.11-1.29,3.91-3.08,4.66l3.61,5.89h-3.77l-3.16-5.3h-3.34v5.3h-3.43v-7.95h7.36c1.31,0,2.38-1.07,2.38-2.41s-1.07-2.41-2.38-2.41h-7.36v-3.02Z"/>
      <g>
        <path class="cls-2" d="M43.98,4.17h11.45v1.31h-5v14.47h-1.45V5.48h-5v-1.31Z"/>
        <path class="cls-2" d="M57.57,4.17h10.89v1.31h-9.44v5.62h8.94v1.26h-8.94v6.29h9.74v1.31h-11.18V4.17Z"/>
      </g>
      <path class="cls-2" d="M71.45,4.17h1.47v7.68l-1.47,1.9V4.17ZM71.45,19.96v-4.2l10.03-11.59h1.71l-5.78,6.58,6.13,9.2h-1.66l-5.38-8.03-3.59,4.04v3.99h-1.47Z"/>
      <path class="cls-2" d="M85.8,4.17h1.47l9.85,13.3V4.17h1.47v15.79h-1.47l-11.32-15.52v-.27ZM87.27,8.86v11.1h-1.47V6.66l1.47,2.19Z"/>
      <g>
        <path class="cls-2" d="M101.53,12.07c0-4.68,3.26-8.19,8.03-8.19,4.74,0,8,3.53,8,8.19s-3.26,8.21-8,8.21-8.03-3.53-8.03-8.21ZM103,12.07c0,3.85,2.59,6.9,6.56,6.9,3.93,0,6.53-3.05,6.53-6.9s-2.57-6.9-6.53-6.9-6.56,3.08-6.56,6.9Z"/>
        <path class="cls-2" d="M120.48,4.17h1.47v14.47h8.88v1.31h-10.35V4.17Z"/>
        <path class="cls-2" d="M130.93,12.07c0-4.68,3.26-8.19,8.03-8.19,4.74,0,8,3.53,8,8.19s-3.26,8.21-8,8.21-8.03-3.53-8.03-8.21ZM132.4,12.07c0,3.85,2.59,6.9,6.56,6.9,3.93,0,6.53-3.05,6.53-6.9s-2.57-6.9-6.53-6.9-6.56,3.08-6.56,6.9Z"/>
        <path class="cls-2" d="M152.93,14.88V4.17h1.45v10.89c0,3.26-2.06,5.22-5.86,5.22-.53,0-1.12-.05-1.58-.13v-1.34c.4.11.91.16,1.39.16,2.68,0,4.6-1.2,4.6-4.09h0Z"/>
        <path class="cls-2" d="M158.24,0c.56,0,.99.43.99.96s-.43.94-.99.94-1.02-.43-1.02-.94c0-.53.45-.96,1.02-.96ZM157.52,4.17h1.44v15.79h-1.44V4.17Z"/>
      </g>
      <path class="cls-1" d="M165.64,18.35c0,1.06-.86,1.92-1.92,1.92s-1.92-.86-1.92-1.92.86-1.92,1.92-1.92,1.92.86,1.92,1.92"/>
    </g>
  </g>
</svg>